PathFileType	4	(X/Y/Z)	/Users/itak/Documents/Research/Walk-IL/dataset/trc/00179_00008.trc
DataRate	CameraRate	NumFrames	NumMarkers	Units	OrigDataRate	OrigDataStartFrame	OrigNumFrames
100.000000	100.000000	4	53	mm	100.000000	465	745
Frame#	Time	RPSI			LPSI			L3			STRN			T10			C7			CLAV			RBAK			LBAK			LSHO			LUPA			LAEL			LAOL			LWTS			LWPS			LFRA			LIFD			LHPS			LHTS			RSHO			RUPA			RAEL			RAOL			RWTS			RWPS			RFRA			RIFD			RHTS			RHPS			RBHD			LFHD			RFHD			LBHD			LHIP			RHIP			RASI			LASI			LKNE			LTHI			LANK			LTIP			LTOE			LMT1			LMT5			LHEE			RKNE			RTHI			RANK			RTIP			RTOE			RMT1			RMT5			RHEE			
		X1	Y1	Z1	X2	Y2	Z2	X3	Y3	Z3	X4	Y4	Z4	X5	Y5	Z5	X6	Y6	Z6	X7	Y7	Z7	X8	Y8	Z8	X9	Y9	Z9	X10	Y10	Z10	X11	Y11	Z11	X12	Y12	Z12	X13	Y13	Z13	X14	Y14	Z14	X15	Y15	Z15	X16	Y16	Z16	X17	Y17	Z17	X18	Y18	Z18	X19	Y19	Z19	X20	Y20	Z20	X21	Y21	Z21	X22	Y22	Z22	X23	Y23	Z23	X24	Y24	Z24	X25	Y25	Z25	X26	Y26	Z26	X27	Y27	Z27	X28	Y28	Z28	X29	Y29	Z29	X30	Y30	Z30	X31	Y31	Z31	X32	Y32	Z32	X33	Y33	Z33	X34	Y34	Z34	X35	Y35	Z35	X36	Y36	Z36	X37	Y37	Z37	X38	Y38	Z38	X39	Y39	Z39	X40	Y40	Z40	X41	Y41	Z41	X42	Y42	Z42	X43	Y43	Z43	X44	Y44	Z44	X45	Y45	Z45	X46	Y46	Z46	X47	Y47	Z47	X48	Y48	Z48	X49	Y49	Z49	X50	Y50	Z50	X51	Y51	Z51	X52	Y52	Z52	X53	Y53	Z53	

466	4.65	-629.6011962890625	1031.992065429688	-169.7774658203125	-526.2743530273438	1027.63037109375	-102.4168548583984	-577.8862915039062	1065.526000976562	-137.1456909179688	-721.3501586914062	1274.178955078125	78.10475158691406	-544.5279541015625	1225.17919921875	-164.5976257324219	-576.5753784179688	1493.704711914062	-97.89500427246094	-698.1265258789062	1388.303100585938	61.57032012939453	-622.6699829101562	1319.76123046875	-219.69970703125	-491.253173828125	1469.848266601562	-44.94423675537109	-474.5834350585938	1454.760375976562	63.39853286743164	-395.0762939453125	1322.576538085938	76.65221405029297	-388.3263244628906	1105.352416992188	86.02510070800781	-423.2881774902344	1092.586059570312	4.476724624633789	-449.5831604003906	860.7659912109375	143.3517303466797	-373.3021545410156	854.2025756835938	91.66490173339844	-375.5321655273438	996.545166015625	96.63657379150391	-450.5978698730469	677.7999267578125	118.16552734375	-377.8687438964844	783.2014770507812	100.3282089233398	-426.87255859375	781.2716064453125	153.1826019287109	-757.2858276367188	1473.868896484375	-155.2043151855469	-796.4396362304688	1411.430908203125	-216.2240142822266	-823.2769775390625	1135.197631835938	-296.7663879394531	-749.0874633789062	1118.954833984375	-234.0450897216797	-905.3655395507812	893.7526245117188	-216.5012664794922	-888.9535522460938	890.8848876953125	-304.8551025390625	-854.5525512695312	1064.571655273438	-301.0783081054688	-892.9046630859375	702.127197265625	-222.3180236816406	-925.9083251953125	796.751953125	-219.5354309082031	-903.952392578125	805.6016845703125	-296.5126647949219	-710.1239624023438	1665.366455078125	-38.5950813293457	-612.171142578125	1659.556640625	156.265625	-737.922607421875	1671.279907226562	135.2989044189453	-574.3175048828125	1662.997924804688	-19.9881420135498	-478.5591430664062	956.5227661132812	42.29949951171875	-820.7616577148438	1002.702087402344	-94.12615203857422	-811.8997192382812	1027.276977539062	2.494240283966064	-586.6618041992188	1000.851440429688	126.4450454711914	-534.4552001953125	450.8697204589844	21.82166862487793	-518.4418334960938	598.44921875	47.95626449584961	-403.5735168457031	190.5278625488281	-360.9222412109375	-462.022216796875	311.1663513183594	-158.6810150146484	-494.341552734375	34.74345779418945	-261.49462890625	-516.1607055664062	64.14224243164062	-309.7579650878906	-398.9571533203125	98.2166748046875	-293.5549926757812	-450.8025207519531	236.6982116699219	-414.0083923339844	-908.8524780273438	533.1160888671875	65.83667755126953	-891.1210327148438	796.8286743164062	2.461833477020264	-951.46826171875	23.76385307312012	8.343432426452637	-918.9639282226562	408.5775146484375	92.55582427978516	-969.0907592773438	67.94841003417969	224.4719696044922	-912.7470092773438	63.36233139038086	186.5408172607422	-1008.494934082031	26.45182037353516	110.2230834960938	-873.0279541015625	35.91286468505859	-24.25119972229004	
467	4.66	-639.363525390625	1032.8232421875	-162.1704406738281	-534.0899658203125	1028.733276367188	-97.37661743164062	-586.2028198242188	1067.02490234375	-131.0672607421875	-725.8574829101562	1275.549682617188	86.73184967041016	-552.843505859375	1227.2607421875	-158.9104309082031	-584.384033203125	1495.630493164062	-91.36473083496094	-703.0928955078125	1389.729614257812	70.00323486328125	-632.0880737304688	1321.671875	-212.5457000732422	-498.2043151855469	1471.8828125	-39.72365188598633	-479.7998352050781	1456.84326171875	68.35311889648438	-399.1960754394531	1325.287109375	80.18215942382812	-389.6767272949219	1108.534790039062	88.30948638916016	-426.2008972167969	1095.5546875	7.364031791687012	-443.5016784667969	862.17724609375	145.0148010253906	-368.8286743164062	858.1539916992188	90.81278228759766	-374.3157043457031	1000.250915527344	97.62239074707031	-440.5578918457031	679.3641357421875	117.4264450073242	-371.1103515625	787.020751953125	98.76344299316406	-418.4225463867188	783.026611328125	153.2020263671875	-765.8623046875	1475.504760742188	-145.6825866699219	-805.930419921875	1413.097045898438	-206.1438598632812	-834.18994140625	1136.840942382812	-286.6771850585938	-759.3764038085938	1120.319580078125	-224.9798431396484	-915.5697631835938	896.021484375	-203.6189727783203	-900.5240478515625	892.5057983398438	-292.2602233886719	-865.6654663085938	1066.211181640625	-290.1262512207031	-904.0869140625	704.401611328125	-208.2708587646484	-936.601806640625	799.1859741210938	-205.6650695800781	-915.7042236328125	807.3541259765625	-283.054931640625	-717.3123168945312	1667.0009765625	-30.04604148864746	-615.7721557617188	1661.6240234375	162.9680786132812	-741.9200439453125	1673.155639648438	144.3641662597656	-581.1929931640625	1664.851928710938	-13.96769428253174	-483.6061401367188	957.5071411132812	46.31268692016602	-827.7899169921875	1004.410339355469	-84.58475494384766	-817.7183227539062	1028.608276367188	11.97875785827637	-590.237060546875	1002.278503417969	132.1989440917969	-542.4932861328125	451.1753540039062	37.66323471069336	-525.1456909179688	599.1369018554688	59.59917068481445	-417.7515258789062	201.2059936523438	-352.9646301269531	-472.9380187988281	315.5617980957031	-146.5991973876953	-499.3793640136719	36.42013168334961	-252.3952026367188	-524.2530517578125	69.76472473144531	-299.2189636230469	-407.8045043945312	107.8998184204102	-287.1997985839844	-468.03759765625	246.1937713623047	-404.0250244140625	-912.884521484375	532.6610107421875	70.90091705322266	-897.1635131835938	797.2393798828125	10.20537090301514	-951.457763671875	23.8154125213623	8.341320991516113	-922.2117919921875	407.7876892089844	96.21885681152344	-968.6083984375	66.75955200195312	224.7417449951172	-912.4247436523438	62.49532699584961	186.6494445800781	-1008.573059082031	26.54759788513184	110.1952514648438	-873.0458984375	35.96648406982422	-24.24455261230469	
468	4.67	-648.5623779296875	1033.85107421875	-154.9067993164062	-541.6253051757812	1029.913696289062	-92.58415222167969	-594.200439453125	1068.64990234375	-125.2320556640625	-729.9739990234375	1276.802978515625	95.29777526855469	-560.9981689453125	1229.406372070312	-153.3700561523438	-592.020263671875	1497.60400390625	-84.87216186523438	-707.7172241210938	1391.067993164062	78.43872833251953	-641.40673828125	1323.705200195312	-205.4400024414062	-504.9895324707031	1473.940673828125	-34.57537460327148	-484.7648315429688	1458.892822265625	73.17452239990234	-403.0965881347656	1327.984985351562	83.50179290771484	-390.8026123046875	1111.733642578125	90.64206695556641	-428.7093505859375	1098.473754882812	10.26568222045898	-437.8592834472656	863.9360961914062	146.6988220214844	-364.6879577636719	862.1881713867188	90.37514495849609	-373.1359252929688	1003.971618652344	98.77581024169922	-431.4491271972656	681.3646850585938	116.8857727050781	-364.9554138183594	790.9847412109375	97.65566253662109	-410.7242126464844	785.1868896484375	153.40185546875	-774.27099609375	1477.146606445312	-136.0096740722656	-815.2916259765625	1414.787963867188	-195.9065399169922	-845.0160522460938	1138.525024414062	-276.5366821289062	-769.5661010742188	1121.705444335938	-215.9232635498047	-925.7652587890625	898.4381713867188	-190.5704650878906	-912.0521240234375	894.1937255859375	-279.4550170898438	-876.6968994140625	1067.810180664062	-279.0604248046875	-915.47314453125	706.84619140625	-193.8414001464844	-947.3764038085938	801.82666015625	-191.5353240966797	-927.504638671875	809.2037963867188	-269.3101501464844	-724.2864990234375	1668.596557617188	-21.39320755004883	-619.1676635742188	1663.618408203125	169.7035217285156	-745.6727905273438	1674.935424804688	153.4815368652344	-587.9137573242188	1666.688842773438	-7.850567817687988	-488.4320983886719	958.5070190429688	50.17326736450195	-834.5283203125	1006.013671875	-75.07818603515625	-823.2103881835938	1029.8408203125	21.42432594299316	-593.4620971679688	1003.767028808594	137.7879333496094	-550.508056640625	451.8433532714844	53.59589004516602	-531.7904663085938	600.07763671875	71.33057403564453	-432.2997436523438	210.7340393066406	-343.7236938476562	-484.1199035644531	319.6875915527344	-133.9272918701172	-505.9813842773438	39.06357574462891	-241.8042907714844	-533.600341796875	75.33382415771484	-287.3829345703125	-417.9092407226562	116.9687271118164	-279.0431823730469	-485.1517333984375	254.4174194335938	-393.1969909667969	-916.4571533203125	532.152587890625	75.774658203125	-902.5947875976562	797.61328125	18.03130531311035	-951.364990234375	23.94156265258789	8.364840507507324	-925.0569458007812	406.987548828125	99.68156433105469	-968.1282958984375	65.64265441894531	225.028076171875	-912.05078125	61.63059234619141	186.8092956542969	-1008.562866210938	26.69564628601074	110.1786575317383	-872.9686889648438	36.01365661621094	-24.20259094238281	
469	4.68	-657.154541015625	1035.0625	-147.9590759277344	-548.8772583007812	1031.1806640625	-87.95301055908203	-601.878173828125	1070.362182617188	-119.5780258178711	-733.7197265625	1277.96484375	103.7795715332031	-569.01806640625	1231.584350585938	-147.9507141113281	-599.4613037109375	1499.6123046875	-78.4375	-711.9976806640625	1392.345947265625	86.85092926025391	-650.6129760742188	1325.834594726562	-198.3801116943359	-511.6060180664062	1476.0146484375	-29.52358627319336	-489.4827270507812	1460.908569335938	77.83773803710938	-406.77099609375	1330.672973632812	86.58657836914062	-391.7050476074219	1114.944458007812	92.951416015625	-430.8724060058594	1101.347778320312	13.12688446044922	-432.7050476074219	866.0040893554688	148.4237213134766	-360.8838500976562	866.2429809570312	90.35551452636719	-371.9912414550781	1007.678039550781	100.0578155517578	-423.2875671386719	683.7186279296875	116.6426162719727	-359.4153747558594	795.015625	97.04335784912109	-403.8200988769531	787.684814453125	153.82958984375	-782.495361328125	1478.802368164062	-126.2080841064453	-824.5081176757812	1416.513916015625	-185.5245208740234	-855.7571411132812	1140.264038085938	-266.3158569335938	-779.6065673828125	1123.163818359375	-206.8911285400391	-935.9169311523438	900.9972534179688	-177.3633728027344	-923.5230102539062	895.9657592773438	-266.4515686035156	-887.6492919921875	1069.394653320312	-267.8666076660156	-926.9769897460938	709.4585571289062	-179.0894012451172	-958.18310546875	804.6607666015625	-177.1777496337891	-939.3209838867188	811.1627807617188	-255.3117218017578	-731.0405883789062	1670.138671875	-12.63836765289307	-622.3457641601562	1665.522338867188	176.4687042236328	-749.171875	1676.5986328125	162.6493835449219	-594.4656982421875	1668.4990234375	-1.640348672866821	-493.0125122070312	959.588623046875	53.96478652954102	-840.9725341796875	1007.522888183594	-65.61527252197266	-828.3768310546875	1031.0361328125	30.80573844909668	-596.3930053710938	1005.34228515625	143.241943359375	-558.4034423828125	452.8810119628906	69.54507446289062	-538.3231811523438	601.2937622070312	83.14115905761719	-447.092529296875	218.8015289306641	-333.2665100097656	-495.4547424316406	323.4474487304688	-120.74853515625	-514.3656005859375	42.46479415893555	-229.7229156494141	-544.293212890625	80.64031982421875	-274.3246459960938	-429.2530212402344	124.9863586425781	-269.1509399414062	-501.9950561523438	261.2284545898438	-381.5692443847656	-919.6201782226562	531.6076049804688	80.50878143310547	-907.427978515625	797.9693603515625	25.97533226013184	-951.2283325195312	24.12979125976562	8.41529369354248	-927.5291748046875	406.1858825683594	102.9993667602539	-967.6863403320312	64.5478515625	225.3391418457031	-911.662841796875	60.75627899169922	187.023681640625	-1008.50439453125	26.84896087646484	110.1741638183594	-872.8355102539062	36.07228851318359	-24.12639045715332	
